<?xml version="1.0" encoding="utf-8"?>
<!-- Generator: Adobe Illustrator 28.3.0, SVG Export Plug-In . SVG Version: 6.00 Build 0)  -->
<svg version="1.1" id="Layer_1" xmlns="http://www.w3.org/2000/svg" xmlns:xlink="http://www.w3.org/1999/xlink" x="0px" y="0px"
	 viewBox="0 0 180 180" style="enable-background:new 0 0 180 180;" xml:space="preserve">
<style type="text/css">
	.st0{fill:#FFFFFF;}
	.st1{fill:#50AADF;}
</style>
<rect width="180" height="180"/>
<g>
	<path class="st0" d="M8,117.4l11-12.2c4.5,5,8.9,7.9,14.5,7.9c6.6,0,10.6-4,10.6-13.1V49h17.9v51.8c0,9.4-2.7,16.4-7.5,21.1
		c-4.9,4.9-12,7.3-20.6,7.3C21.5,129.2,13.4,123.8,8,117.4z"/>
	<path class="st0" d="M70.2,49h36.7c9,0,16.2,2.5,20.7,7c3.6,3.6,5.4,8,5.4,13.4v0.2c0,8.9-4.7,13.9-10.4,17.1
		c9.2,3.5,14.8,8.8,14.8,19.4v0.2c0,14.5-11.8,21.7-29.6,21.7H70.2V49z M103.2,81c7.7,0,12.5-2.5,12.5-8.4v-0.2
		c0-5.2-4.1-8.1-11.4-8.1H87.1V81H103.2z M107.8,112.8c7.7,0,12.3-2.7,12.3-8.6V104c0-5.3-4-8.6-12.9-8.6H87.1v17.4H107.8z"/>
	<circle class="st1" cx="157.4" cy="113.3" r="14.8"/>
</g>
</svg>
