<svg width="180" height="21" viewBox="0 0 180 21" fill="none" xmlns="http://www.w3.org/2000/svg">
<g clip-path="url(#clip0_865_3625)">
<path d="M0 17.3103L2.72338 14.283C3.84545 15.522 4.94416 16.2467 6.31169 16.2467C7.93636 16.2467 8.95325 15.2648 8.95325 12.9973V0.338867H13.3831V13.1843C13.3831 15.5103 12.7052 17.2519 11.5364 18.4324C10.3325 19.6363 8.56753 20.2557 6.42857 20.2557C3.36623 20.2557 1.35584 18.9116 0 17.3103Z" fill="white"/>
<path d="M16.6679 0.338867H25.7848C28.029 0.338867 29.7939 0.958348 30.916 2.08043C31.816 2.98043 32.2601 4.06744 32.2601 5.42328V5.48172C32.2601 7.7025 31.0796 8.92978 29.677 9.71289C31.9446 10.5778 33.3472 11.8986 33.3472 14.5402V14.5986C33.3472 18.1869 30.4251 19.9869 25.9952 19.9869H16.6562V0.338867H16.6679ZM24.8498 8.27523C26.755 8.27523 27.9588 7.65575 27.9588 6.19471V6.13627C27.9588 4.85056 26.9537 4.11419 25.1303 4.11419H20.864V8.26354H24.8498V8.27523ZM26.0069 16.1882C27.9121 16.1882 29.0692 15.5103 29.0692 14.0609V14.0025C29.0692 12.6817 28.0874 11.8752 25.8666 11.8752H20.8757V16.1999H26.0069V16.1882Z" fill="white"/>
<path d="M35.7891 0.338867H50.5982V4.18432H40.0787V8.17004H49.3358V12.0155H40.0787V16.1415H50.7384V19.9869H35.7891V0.338867Z" fill="white"/>
<path d="M53.4629 0.338867H57.7876V16.048H67.5824V19.9752H53.4746V0.338867H53.4629Z" fill="white"/>
<path d="M69.709 0.338867H74.0337V16.048H83.8285V19.9752H69.7207V0.338867H69.709Z" fill="white"/>
<path d="M86.1426 0.338867H90.4673V19.9752H86.1426V0.338867Z" fill="white"/>
<path d="M94.2539 0.338867H98.2396L107.438 12.4246V0.338867H111.705V19.9752H108.034L98.5201 7.49211V19.9752H94.2539V0.338867Z" fill="white"/>
<path d="M114.416 10.2156V10.1571C114.416 4.57013 118.764 0 124.713 0C128.243 0 130.382 0.958442 132.428 2.68831L129.704 5.97273C128.185 4.71039 126.841 3.98571 124.573 3.98571C121.429 3.98571 118.939 6.76753 118.939 10.0987V10.1571C118.939 13.7455 121.406 16.387 124.889 16.387C126.455 16.387 127.858 15.9896 128.956 15.2065V12.4013H124.608V8.67273H133.141V17.2052C131.119 18.9117 128.348 20.3143 124.748 20.3143C118.636 20.3143 114.428 16.0247 114.428 10.2156H114.416Z" fill="white"/>
<path d="M136.156 0.338867H150.965V4.18432H140.446V8.17004H149.703V12.0155H140.446V16.1415H151.106V19.9869H136.156V0.338867Z" fill="white"/>
<path d="M153.83 0.338867H162.807C165.308 0.338867 167.237 1.04017 168.534 2.32588C169.633 3.42458 170.217 4.96744 170.217 6.81419V6.87263C170.217 10.0402 168.511 12.0389 166.009 12.9622L170.802 19.9752H165.752L161.544 13.6869H158.155V19.9752H153.83V0.338867ZM162.538 9.87653C164.642 9.87653 165.846 8.75445 165.846 7.09471V7.03627C165.846 5.18952 164.56 4.23108 162.456 4.23108H158.166V9.86484H162.55L162.538 9.87653Z" fill="white"/>
<path d="M176.319 19.9755C178.352 19.9755 180 18.327 180 16.2936C180 14.2602 178.352 12.6118 176.319 12.6118C174.285 12.6118 172.637 14.2602 172.637 16.2936C172.637 18.327 174.285 19.9755 176.319 19.9755Z" fill="#00A0FF"/>
</g>
<defs>
<clipPath id="clip0_865_3625">
<rect width="180" height="20.3143" fill="white"/>
</clipPath>
</defs>
</svg>
