<svg width="180" height="21" viewBox="0 0 180 21" fill="none" xmlns="http://www.w3.org/2000/svg">
<g clip-path="url(#clip0_1334_3401)">
<path d="M0 17.3104L2.72338 14.2831C3.84545 15.5221 4.94416 16.2467 6.31169 16.2467C7.93636 16.2467 8.95325 15.2649 8.95325 12.9974V0.338959H13.3831V13.1844C13.3831 15.5104 12.7052 17.2519 11.5364 18.4325C10.3325 19.6364 8.56753 20.2558 6.42857 20.2558C3.36623 20.2558 1.35584 18.9117 0 17.3104Z" fill="black"/>
<path d="M16.6679 0.338959H25.7848C28.029 0.338959 29.7939 0.958439 30.916 2.08052C31.816 2.98052 32.2601 4.06753 32.2601 5.42337V5.48182C32.2601 7.7026 31.0796 8.92987 29.677 9.71299C31.9446 10.5779 33.3472 11.8987 33.3472 14.5403V14.5987C33.3472 18.187 30.4251 19.987 25.9952 19.987H16.6562V0.338959H16.6679ZM24.8498 8.27532C26.755 8.27532 27.9588 7.65584 27.9588 6.1948V6.13636C27.9588 4.85065 26.9537 4.11428 25.1303 4.11428H20.864V8.26363H24.8498V8.27532ZM26.0069 16.1883C27.9121 16.1883 29.0692 15.5104 29.0692 14.061V14.0026C29.0692 12.6818 28.0874 11.8753 25.8666 11.8753H20.8757V16.2H26.0069V16.1883Z" fill="black"/>
<path d="M35.79 0.338959H50.5991V4.18441H40.0796V8.17013H49.3368V12.0156H40.0796V16.1416H50.7394V19.987H35.79V0.338959Z" fill="black"/>
<path d="M53.4619 0.338959H57.7866V16.048H67.5814V19.9753H53.4736V0.338959H53.4619Z" fill="black"/>
<path d="M69.709 0.338959H74.0337V16.048H83.8285V19.9753H69.7207V0.338959H69.709Z" fill="black"/>
<path d="M86.1426 0.338959H90.4673V19.9753H86.1426V0.338959Z" fill="black"/>
<path d="M94.2549 0.338959H98.2406L107.439 12.4247V0.338959H111.706V19.9753H108.035L98.5211 7.49221V19.9753H94.2549V0.338959Z" fill="black"/>
<path d="M114.417 10.2156V10.1571C114.417 4.57013 118.765 0 124.714 0C128.244 0 130.383 0.958442 132.429 2.68831L129.705 5.97273C128.186 4.71039 126.842 3.98571 124.574 3.98571C121.43 3.98571 118.94 6.76753 118.94 10.0987V10.1571C118.94 13.7455 121.407 16.387 124.89 16.387C126.456 16.387 127.859 15.9896 128.957 15.2065V12.4013H124.609V8.67273H133.142V17.2052C131.12 18.9117 128.349 20.3143 124.749 20.3143C118.636 20.3143 114.429 16.0247 114.429 10.2156H114.417Z" fill="black"/>
<path d="M136.157 0.338959H150.966V4.18441H140.447V8.17013H149.704V12.0156H140.447V16.1416H151.107V19.987H136.157V0.338959Z" fill="black"/>
<path d="M153.83 0.338959H162.807C165.308 0.338959 167.237 1.04026 168.534 2.32597C169.633 3.42467 170.217 4.96753 170.217 6.81428V6.87273C170.217 10.0403 168.511 12.039 166.009 12.9623L170.802 19.9753H165.752L161.544 13.687H158.155V19.9753H153.83V0.338959ZM162.538 9.87662C164.642 9.87662 165.846 8.75454 165.846 7.0948V7.03636C165.846 5.18961 164.56 4.23117 162.456 4.23117H158.166V9.86493H162.55L162.538 9.87662Z" fill="black"/>
<path d="M176.319 19.9755C178.352 19.9755 180 18.327 180 16.2936C180 14.2602 178.352 12.6118 176.319 12.6118C174.285 12.6118 172.637 14.2602 172.637 16.2936C172.637 18.327 174.285 19.9755 176.319 19.9755Z" fill="#5600E8"/>
</g>
<defs>
<clipPath id="clip0_1334_3401">
<rect width="180" height="20.3143" fill="white"/>
</clipPath>
</defs>
</svg>
