<svg width="520" height="492" viewBox="0 0 520 492" fill="none" xmlns="http://www.w3.org/2000/svg">
<path d="M263.194 218.792C263.194 241.521 241.843 255.985 215.212 255.985C203.733 255.985 192.254 253.459 184.448 248.408L183.989 252.541C183.53 253.918 183.53 254.377 182.152 254.377H178.938C177.561 254.377 177.331 253.918 177.331 252.541L175.724 214.89C175.724 213.512 175.954 213.053 177.331 213.053H181.464C182.841 213.053 183.071 213.512 183.3 214.89L183.759 219.252C185.596 233.256 197.764 248.179 215.212 248.179C228.987 248.179 237.481 242.21 237.481 231.419C237.481 218.563 225.313 212.594 210.62 205.936C193.861 197.901 177.561 188.717 177.561 166.448C177.561 146.704 193.861 131.322 219.574 131.322C229.216 131.322 239.318 133.848 245.976 138.439L246.664 134.536C246.894 133.159 247.124 132.7 248.272 132.7H251.486C252.863 132.7 253.093 133.159 253.093 134.536V169.203C253.093 170.81 252.863 171.269 251.486 171.269H247.583C246.205 171.269 245.746 170.81 245.746 169.203V166.448C245.287 149.918 233.349 139.128 219.804 139.128C208.325 139.128 202.585 144.868 202.585 153.362C202.585 164.841 213.146 170.351 228.757 177.927C247.583 187.11 263.194 195.375 263.194 218.792ZM369.113 229.812C369.113 241.751 371.18 245.653 375.771 245.653C379.215 245.653 381.74 242.898 383.347 239.455C383.807 238.307 384.495 238.077 385.643 238.536L388.398 239.684C389.546 240.143 389.776 240.832 389.087 242.21C385.873 250.475 378.067 255.985 365.44 255.985C350.977 255.985 341.105 248.408 339.498 233.945H338.809C330.544 248.408 318.606 255.985 301.846 255.985C282.791 255.985 268.328 245.653 268.328 225.45C268.328 204.788 280.266 196.523 308.275 188.258C337.431 179.764 337.661 177.927 337.661 170.81V165.3C337.661 147.623 327.33 140.965 313.555 140.965C306.667 140.965 300.469 142.801 295.188 145.556C298.403 150.837 299.55 156.347 299.55 160.709C299.55 167.137 296.566 172.647 287.153 172.647C278.429 172.647 272.919 168.974 272.919 160.709C272.919 146.475 295.418 131.322 322.738 131.322C346.844 131.322 369.113 141.653 369.113 169.433V229.812ZM337.661 225.68V186.651C330.085 188.947 322.509 191.702 316.31 194.687C305.29 199.967 300.698 207.084 300.698 219.711C300.698 233.026 305.979 241.521 316.08 241.521C325.264 241.521 332.61 235.093 337.661 225.68ZM494.1 141.653L491.804 141.883C486.983 142.342 484.688 144.868 481.014 153.592C478.948 158.413 476.193 165.759 473.208 174.713L440.838 266.775C438.083 274.81 436.476 280.32 436.476 284.453C436.476 288.815 438.542 291.34 444.281 291.57L449.791 291.799C451.169 291.799 451.628 292.029 451.628 293.406V297.309C451.628 298.687 451.169 298.916 449.791 298.916H401.35C399.972 298.916 399.513 298.687 399.513 297.309V293.406C399.513 292.029 399.972 291.799 401.35 291.799L408.926 291.34C419.487 291.11 424.308 284.682 430.277 266.775L433.491 256.673C434.18 254.607 433.95 253.459 433.261 252.311L390.33 162.086C381.376 143.49 380.688 142.113 375.178 141.653H373.8C372.423 141.424 371.963 141.194 371.963 139.817V135.914C371.963 134.536 372.423 134.307 373.8 134.307H430.736C432.114 134.307 432.573 134.536 432.573 135.914V139.817C432.573 141.194 432.114 141.424 430.736 141.653H425.456C421.782 141.883 419.716 142.801 419.716 146.245C419.716 149.459 421.553 154.051 424.767 162.086L448.184 216.726H448.414L461.959 175.172C464.714 166.907 467.469 158.413 467.469 151.985C467.469 145.556 464.714 141.883 458.974 141.653H453.465C452.087 141.424 451.628 141.194 451.628 139.817V135.914C451.628 134.536 452.087 134.307 453.465 134.307H494.1C495.478 134.307 495.937 134.536 495.937 135.914V139.817C495.937 141.194 495.478 141.424 494.1 141.653Z" fill="#5600E8"/>
<path d="M144.177 443.552H84.2561C82.8786 443.552 82.4194 443.322 82.4194 441.945V438.042C82.4194 436.664 82.8786 436.435 84.2561 436.435L91.8322 435.976C97.3422 435.746 97.5717 434.598 97.5717 417.15V360.903C97.5717 342.536 90.2252 336.108 77.5982 336.108C65.66 336.108 58.3135 343.455 53.0331 354.015V417.15C53.0331 434.598 53.2627 435.746 58.7726 435.976L66.3488 436.435C67.7263 436.435 68.1854 436.664 68.1854 438.042V441.945C68.1854 443.322 67.7263 443.552 66.3488 443.552H5.73951C4.36203 443.552 3.90287 443.322 3.90287 441.945V438.042C3.90287 436.664 4.36203 436.435 5.73951 436.435L15.3819 435.976C21.1214 435.976 21.351 434.598 21.351 417.15V300.064C21.351 282.616 21.1214 281.238 15.3819 281.238L5.73951 280.779C4.36203 280.779 3.90287 280.55 3.90287 279.172V275.269C3.90287 273.892 4.36203 273.662 5.73951 273.662H50.9669C52.3444 273.662 53.0331 274.581 53.0331 276.417V341.618H53.4923C60.1501 331.057 71.8587 321.874 91.3731 321.874C109.051 321.874 129.483 330.598 129.483 361.821V417.15C129.483 434.598 129.713 435.976 135.223 435.976L144.177 436.435C145.554 436.435 146.013 436.664 146.013 438.042V441.945C146.013 443.322 145.554 443.552 144.177 443.552ZM256.291 410.492C252.158 429.777 236.088 446.536 207.39 446.536C169.969 446.536 146.322 423.578 146.322 386.157C146.322 350.342 167.673 321.874 205.783 321.874C232.644 321.874 256.98 337.026 256.98 371.004V372.611C256.98 378.351 255.143 380.188 248.026 380.188H181.218V384.32C181.218 413.018 188.565 434.369 215.196 434.369C233.562 434.369 244.582 423.808 248.944 409.115C249.403 407.737 249.863 407.278 251.24 407.508L255.143 408.196C256.52 408.426 256.75 409.115 256.291 410.492ZM225.297 363.199C225.297 340.47 218.41 329.909 203.946 329.909C186.957 329.909 181.218 345.521 181.218 371.923H215.196C223.231 371.923 225.297 370.086 225.297 363.199ZM323.802 443.552H260.897C259.519 443.552 259.06 443.322 259.06 441.945V438.042C259.06 436.664 259.519 436.435 260.897 436.435L270.539 435.976C276.279 435.976 276.508 434.598 276.508 417.15V300.064C276.508 282.616 276.279 281.238 270.539 281.238L260.897 280.779C259.519 280.779 259.06 280.55 259.06 279.172V275.269C259.06 273.892 259.519 273.662 260.897 273.662H306.124C307.502 273.662 308.19 274.581 308.19 276.417V417.15C308.19 434.598 308.42 435.976 313.93 435.976L323.802 436.435C325.179 436.435 325.639 436.664 325.639 438.042V441.945C325.639 443.322 325.179 443.552 323.802 443.552ZM389.053 443.552H326.148C324.77 443.552 324.311 443.322 324.311 441.945V438.042C324.311 436.664 324.77 436.435 326.148 436.435L335.79 435.976C341.53 435.976 341.759 434.598 341.759 417.15V300.064C341.759 282.616 341.53 281.238 335.79 281.238L326.148 280.779C324.77 280.779 324.311 280.55 324.311 279.172V275.269C324.311 273.892 324.77 273.662 326.148 273.662H371.375C372.753 273.662 373.441 274.581 373.441 276.417V417.15C373.441 434.598 373.671 435.976 379.181 435.976L389.053 436.435C390.43 436.435 390.89 436.664 390.89 438.042V441.945C390.89 443.322 390.43 443.552 389.053 443.552ZM513.536 381.565C513.536 419.216 491.496 446.536 451.549 446.536C412.291 446.536 391.399 423.349 391.399 386.386C391.399 348.735 413.439 321.874 453.386 321.874C492.644 321.874 513.536 344.373 513.536 381.565ZM478.64 382.254C478.64 349.653 473.13 330.139 452.697 330.139C432.264 330.139 426.525 350.801 426.525 385.927C426.525 418.298 432.035 438.272 452.467 438.272C472.9 438.272 478.64 416.921 478.64 382.254Z" fill="#5600E8"/>
</svg>
