<?xml version="1.0" encoding="utf-8"?>
<!-- Generator: Adobe Illustrator 28.3.0, SVG Export Plug-In . SVG Version: 6.00 Build 0)  -->
<svg version="1.1" id="Layer_1" xmlns="http://www.w3.org/2000/svg" xmlns:xlink="http://www.w3.org/1999/xlink" x="0px" y="0px"
	 viewBox="0 0 792 612" style="enable-background:new 0 0 792 612;" xml:space="preserve">
<style type="text/css">
	.st0{fill:#FFFFFF;}
	.st1{fill:#50AADF;}
</style>
<g>
	<path class="st0" d="M319,312.1l2.3-2.6c1,1.1,1.9,1.7,3.1,1.7c1.4,0,2.3-0.8,2.3-2.8v-10.8h3.8v11c0,2-0.6,3.5-1.6,4.5
		c-1,1-2.5,1.6-4.4,1.6C321.9,314.6,320.2,313.5,319,312.1z"/>
	<path class="st0" d="M333.3,297.6h7.8c1.9,0,3.4,0.5,4.4,1.5c0.8,0.8,1.2,1.7,1.2,2.9v0c0,1.9-1,3-2.2,3.6c1.9,0.7,3.1,1.9,3.1,4.1
		v0c0,3.1-2.5,4.6-6.3,4.6h-8V297.6z M340.3,304.4c1.6,0,2.7-0.5,2.7-1.8v0c0-1.1-0.9-1.7-2.4-1.7h-3.6v3.6H340.3z M341.2,311.2
		c1.6,0,2.6-0.6,2.6-1.8v0c0-1.1-0.8-1.8-2.7-1.8h-4.3v3.7H341.2z"/>
	<path class="st0" d="M349.6,297.6h12.7v3.3h-9v3.4h7.9v3.3h-7.9v3.5h9.1v3.3h-12.8V297.6z"/>
	<path class="st0" d="M364.7,297.6h3.7V311h8.4v3.4h-12.1V297.6z"/>
	<path class="st0" d="M378.6,297.6h3.7V311h8.4v3.4h-12.1V297.6z"/>
	<path class="st0" d="M392.7,297.6h3.7v16.8h-3.7V297.6z"/>
	<path class="st0" d="M399.6,297.6h3.4l7.9,10.3v-10.3h3.6v16.8h-3.1l-8.1-10.7v10.7h-3.6V297.6z"/>
	<path class="st0" d="M416.9,306L416.9,306c0-4.8,3.7-8.7,8.8-8.7c3,0,4.8,0.8,6.6,2.3l-2.3,2.8c-1.3-1.1-2.4-1.7-4.4-1.7
		c-2.7,0-4.8,2.4-4.8,5.2v0c0,3.1,2.1,5.3,5.1,5.3c1.3,0,2.5-0.3,3.5-1v-2.4h-3.7v-3.2h7.3v7.3c-1.7,1.5-4.1,2.7-7.2,2.7
		C420.5,314.7,416.9,311,416.9,306z"/>
	<path class="st0" d="M435.5,297.6h12.7v3.3h-9v3.4h7.9v3.3h-7.9v3.5h9.1v3.3h-12.8V297.6z"/>
	<path class="st0" d="M450.6,297.6h7.7c2.1,0,3.8,0.6,4.9,1.7c0.9,0.9,1.4,2.3,1.4,3.8v0c0,2.7-1.5,4.4-3.6,5.2l4.1,6h-4.3l-3.6-5.4
		h-2.9v5.4h-3.7V297.6z M458.1,305.8c1.8,0,2.8-1,2.8-2.4v0c0-1.6-1.1-2.4-2.9-2.4h-3.7v4.8H458.1z"/>
</g>
<circle class="st1" cx="469.9" cy="311.3" r="3.1"/>
</svg>
